<?xml version="1.0" encoding="UTF-8"?><svg id="Layer_1" xmlns="http://www.w3.org/2000/svg" viewBox="0 0 160 80"><defs><style>.cls-1{fill:none;}.cls-2{fill:#fff;}</style></defs><rect class="cls-1" width="160" height="80"/><g><polygon class="cls-2" points="84.55 37.48 79.45 37.48 76.89 34.92 76.89 24.72 79.45 24.72 79.45 24.72 76.89 22.17 69.24 22.17 69.24 19.62 66.69 19.62 66.69 22.17 69.24 24.72 74.34 24.72 71.79 27.27 66.69 27.27 64.14 29.82 64.14 32.37 66.69 32.37 66.69 29.82 71.79 29.82 71.79 34.92 69.24 34.92 66.69 37.48 66.69 40.03 69.24 40.03 69.24 37.48 74.34 37.48 71.79 40.03 71.79 42.58 71.79 45.13 74.34 45.13 74.34 42.58 74.34 40.03 76.89 40.03 76.89 42.58 79.45 40.03 82 42.58 82 40.03 84.55 40.03 84.55 42.58 84.55 45.13 87.1 45.13 87.1 42.58 87.1 40.03 84.55 37.48"/><polygon class="cls-2" points="84.55 37.48 82 34.92 82 32.37 84.55 29.82 81.94 29.82 79.45 32.37 79.45 24.72 79.45 24.72 82 22.17 89.65 22.17 89.65 19.62 92.2 19.62 92.2 22.17 89.65 24.72 84.55 24.72 87.1 27.27 92.2 27.27 94.75 29.82 94.75 32.37 92.2 32.37 92.2 29.82 87.1 29.82 87.1 34.92 89.65 34.92 92.2 37.48 92.2 40.03 89.65 40.03 89.65 37.48 84.55 37.48"/><polygon class="cls-2" points="48.1 60.68 45.72 58.12 44.74 59.07 44.74 60.68 43.84 60.68 43.84 54.72 44.74 54.72 44.74 57.83 47.93 54.72 49.21 54.72 46.37 57.49 49.33 60.68 48.1 60.68"/><rect class="cls-2" x="53.18" y="54.72" width=".91" height="5.96"/><path class="cls-2" d="M59.34,60.68v-5.96h2.54c.64,0,1.16,.13,1.55,.39,.43,.29,.66,.74,.66,1.3,0,.37-.1,.69-.3,.95-.05,.07-.11,.13-.18,.19,.2,.12,.36,.26,.49,.44,.19,.26,.28,.58,.28,.95,0,.55-.22,1.01-.65,1.31-.39,.29-.95,.42-1.71,.42h-2.7Zm2.73-.89c.51,0,.89-.08,1.13-.23,.12-.08,.29-.23,.29-.61s-.16-.53-.28-.61c-.24-.15-.62-.23-1.14-.23h-1.83v1.68h1.83Zm-.16-2.58c.44,0,.78-.08,1.01-.23,.19-.13,.27-.3,.27-.57s-.08-.44-.27-.57c-.23-.15-.56-.23-1.01-.23h-1.67v1.6h1.67Z"/><path class="cls-2" d="M73.2,60.68l-1.38-1.81c-.15,.02-.31,.03-.48,.03h-1.33v1.79h-.91v-5.96h2.23c.5,0,.94,.08,1.3,.23,.39,.16,.69,.41,.9,.72,.21,.31,.32,.7,.32,1.13s-.11,.81-.32,1.13c-.19,.28-.46,.51-.79,.67l1.57,2.07h-1.14Zm-1.84-2.68c.55,0,.97-.11,1.24-.33,.25-.2,.37-.49,.37-.87s-.12-.67-.37-.87c-.27-.22-.69-.33-1.24-.33h-1.34v2.39h1.34Z"/><path class="cls-2" d="M82.88,60.68l-.77-1.57h-2.89l-.77,1.57h-1.01l2.91-5.96h.62l2.91,5.96h-1.01Zm-1.2-2.46l-1.01-2.07-1.01,2.07h2.02Z"/><polygon class="cls-2" points="93.2 60.68 93.2 56.76 91.29 59.94 90.77 59.94 88.86 56.77 88.86 60.68 87.95 60.68 87.95 54.72 88.67 54.72 91.04 58.64 93.39 54.72 94.11 54.72 94.11 60.68 93.2 60.68"/><path class="cls-2" d="M101.97,60.7c-.45,0-.87-.07-1.25-.22-.39-.15-.73-.36-1.02-.63-.29-.27-.52-.59-.68-.95-.16-.36-.24-.77-.24-1.19s.08-.83,.24-1.19c.16-.36,.39-.68,.68-.95,.29-.27,.63-.48,1.02-.63,.38-.15,.8-.22,1.25-.22s.87,.07,1.25,.22c.39,.15,.73,.36,1.02,.63,.29,.27,.52,.59,.68,.95,.16,.36,.24,.76,.24,1.19s-.08,.83-.24,1.19c-.16,.36-.39,.68-.68,.95-.29,.27-.63,.48-1.02,.63-.39,.15-.81,.22-1.25,.22Zm0-5.11c-.33,0-.64,.05-.92,.16-.28,.11-.52,.26-.72,.45-.2,.19-.36,.41-.47,.67-.11,.25-.17,.53-.17,.83s.06,.58,.17,.83c.11,.25,.27,.48,.47,.67,.2,.19,.45,.34,.72,.45,.28,.11,.59,.16,.92,.16s.64-.05,.92-.16c.28-.11,.52-.26,.72-.45,.21-.19,.36-.41,.48-.67,.11-.25,.17-.53,.17-.83s-.06-.58-.17-.83c-.11-.26-.27-.48-.47-.67-.2-.19-.45-.34-.72-.45-.28-.11-.59-.16-.92-.16Z"/><path class="cls-2" d="M114.07,60.68l-.77-1.57h-2.89l-.77,1.57h-1.01l2.91-5.96h.62l2.91,5.96h-1.01Zm-1.2-2.46l-1.01-2.07-1.01,2.07h2.02Z"/><polygon points="84.55 37.48 82 34.92 82 32.37 84.55 29.82 81.94 29.82 79.45 32.37 79.45 24.72 76.89 24.72 76.89 34.92 79.45 37.48 84.55 37.48"/></g></svg>